# xmcd CD database file
# Copyright (C) 1996 Ti Kan
#
# Track frame offsets:
#  150
#  947
#  17432
#  30430
#  50372
#  67790
#  83402
#  103522
#  122677
#  144722
#  166745
#  189810
#
# Disc length: 2789 seconds
#
# Revision: 2
# Processed by: cddbd v1.4PL0 Copyright (c) Steve Scherf et al.
# Submitted via: Gronk 1.4
#
DISCID=770ae30c
DTITLE=Eddie Taylor - Long Way From Home
DYEAR=1900
DGENRE=blues
TTITLE0=Introduction
TTITLE1=Bad Boy
TTITLE2=Baby Please Don't Go
TTITLE3=My Sometimes Baby
TTITLE4=There'll Be A Day
TTITLE5=Crossroads
TTITLE6=Hoy Hoy
TTITLE7=Goin' Down Slow
TTITLE8=I Don't Know
TTITLE9=You're Gonna Look For Me
TTITLE10=Signals Of Love
TTITLE11=Blow Wind Blow
EXTD=BP CD 5025\n\nRecorded live in Japan, December, 1977.\n\nEddie Taylo
EXTD=r:  guitar and vocals (except. # 2, 8]\nLouis Myers:  guitar, vocal 
EXTD=and harmonica on #2\nDave Myers:  bass\nOdie Payne:  drums\n\nSubmit
EXTD=ted 6/25/97\n[Jmccoy@efn.org]
EXTT0=
EXTT1=
EXTT2=
EXTT3=
EXTT4=
EXTT5=
EXTT6=
EXTT7=
EXTT8=
EXTT9=
EXTT10=
EXTT11=
PLAYORDER=
